<?xml version="1.0" standalone="no"?><svg xmlns:xlink="http://www.w3.org/1999/xlink" xmlns="http://www.w3.org/2000/svg" viewBox="0 0 1500 714.2906366937958" preserveAspectRatio="xMaxYMax slice"><g transform="scale(1.0337056970966654)"><rect x="0" y="0" width="1451.1" height="691" fill="#ffffff"/><rect x="69.1" y="0" width="69.1" height="69.1" fill="#ffffff"/><rect x="276.4" y="0" width="69.1" height="69.1" fill="#ffffff"/><path d="M 310.95 34.55 A 34.55 34.55 0 0 1  345.5 0 L 310.95 34.55 A 34.55 34.55 0 0 0 345.5 0" fill="#f1f1fb"/><path d="M 345.5 69.1 A 69.1 69.1 0 0 1  414.6 0 L 345.5 69.1 A 69.1 69.1 0 0 0 414.6 0" fill="#b4ddf7"/><path d="M 691 0 A 69.1 69.1 0 0 1  760.1 69.1 L 691 0 A 69.1 69.1 0 0 0 760.1 69.1" fill="#50b1ed"/><path d="M 829.2 0 A 69.1 69.1 0 0 1  898.3000000000001 69.1 L 829.2 0 A 69.1 69.1 0 0 0 898.3000000000001 69.1" fill="#a4d6f5"/><rect x="1036.5" y="0" width="69.1" height="69.1" fill="#ffffff"/><path d="M 1036.5 0 A 34.55 34.55 0 0 1  1071.05 34.55 L 1036.5 0 A 34.55 34.55 0 0 0 1071.05 34.55" fill="#fefeff"/><path d="M 1174.7 69.1 A 69.1 69.1 0 0 1  1243.8 0 L 1174.7 69.1 A 69.1 69.1 0 0 0 1243.8 0" fill="#e6e6f7"/><path d="M 1243.8 69.1 A 69.1 69.1 0 0 1  1312.8999999999999 0 L 1243.8 69.1 A 69.1 69.1 0 0 0 1312.8999999999999 0" fill="#8acbf3"/><path d="M 0 69.1 A 69.1 69.1 0 0 1  69.1 138.2 L 0 69.1 A 69.1 69.1 0 0 0 69.1 138.2" fill="#ebebf9"/><rect x="69.1" y="69.1" width="69.1" height="69.1" fill="#ffffff"/><path d="M 69.1 103.64999999999999 A 34.55 34.55 0 0 1  103.64999999999999 69.1 L 69.1 103.64999999999999 A 34.55 34.55 0 0 0 103.64999999999999 69.1" fill="#ededfa"/><path d="M 103.65 103.65 A 34.55 34.55 0 0 1  138.2 138.2 L 103.65 103.65 A 34.55 34.55 0 0 0 138.2 138.2" fill="#eaeaf8"/><rect x="207.29999999999998" y="69.1" width="69.1" height="69.1" fill="#ffffff"/><path d="M 241.85 103.64999999999999 A 34.55 34.55 0 0 1  276.4 69.1 L 241.85 103.64999999999999 A 34.55 34.55 0 0 0 276.4 69.1" fill="#e9e9f8"/><path d="M 241.85 103.65 A 34.55 34.55 0 0 1  276.4 138.2 L 241.85 103.65 A 34.55 34.55 0 0 0 276.4 138.2" fill="#e2f2fc"/><rect x="276.4" y="69.1" width="69.1" height="69.1" fill="#ffffff"/><path d="M 483.7 138.2 A 69.1 69.1 0 0 1  552.8 69.1 L 483.7 138.2 A 69.1 69.1 0 0 0 552.8 69.1" fill="#269ee8"/><path d="M 621.9 69.1 A 69.1 69.1 0 0 1  691 138.2 L 621.9 69.1 A 69.1 69.1 0 0 0 691 138.2" fill="#fdfdfe"/><path d="M 898.3 69.1 A 69.1 69.1 0 0 1  967.4 138.2 L 898.3 69.1 A 69.1 69.1 0 0 0 967.4 138.2" fill="#a9d9f6"/><rect x="1243.8" y="69.1" width="69.1" height="69.1" fill="#ffffff"/><path d="M 1278.35 138.2 A 34.55 34.55 0 0 1  1312.8999999999999 103.65 L 1278.35 138.2 A 34.55 34.55 0 0 0 1312.8999999999999 103.65" fill="#49adec"/><rect x="1382" y="69.1" width="69.1" height="69.1" fill="#ffffff"/><path d="M 1382 138.2 A 34.55 34.55 0 0 1  1416.55 103.65 L 1382 138.2 A 34.55 34.55 0 0 0 1416.55 103.65" fill="#fefeff"/><rect x="0" y="138.2" width="69.1" height="69.1" fill="#ffffff"/><path d="M 34.55 172.75 A 34.55 34.55 0 0 1  69.1 138.2 L 34.55 172.75 A 34.55 34.55 0 0 0 69.1 138.2" fill="#f5f5fc"/><path d="M 34.55 207.3 A 34.55 34.55 0 0 1  69.1 172.75 L 34.55 207.3 A 34.55 34.55 0 0 0 69.1 172.75" fill="#fdfdff"/><path d="M 69.1 138.2 A 69.1 69.1 0 0 1  138.2 207.29999999999998 L 69.1 138.2 A 69.1 69.1 0 0 0 138.2 207.29999999999998" fill="#35a5ea"/><path d="M 138.2 138.2 A 69.1 69.1 0 0 1  207.29999999999998 207.29999999999998 L 138.2 138.2 A 69.1 69.1 0 0 0 207.29999999999998 207.29999999999998" fill="#f7f7fc"/><path d="M 345.5 138.2 A 69.1 69.1 0 0 1  414.6 207.29999999999998 L 345.5 138.2 A 69.1 69.1 0 0 0 414.6 207.29999999999998" fill="#cbe8fa"/><path d="M 483.7 207.29999999999998 A 69.1 69.1 0 0 1  552.8 138.2 L 483.7 207.29999999999998 A 69.1 69.1 0 0 0 552.8 138.2" fill="#81c7f2"/><rect x="898.3" y="138.2" width="69.1" height="69.1" fill="#ffffff"/><path d="M 898.3 172.75 A 34.55 34.55 0 0 1  932.8499999999999 138.2 L 898.3 172.75 A 34.55 34.55 0 0 0 932.8499999999999 138.2" fill="#f4f4fc"/><path d="M 932.85 207.3 A 34.55 34.55 0 0 1  967.4 172.75 L 932.85 207.3 A 34.55 34.55 0 0 0 967.4 172.75" fill="#cae7f9"/><rect x="1243.8" y="138.2" width="69.1" height="69.1" fill="#ffffff"/><path d="M 1278.35 207.3 A 34.55 34.55 0 0 1  1312.8999999999999 172.75 L 1278.35 207.3 A 34.55 34.55 0 0 0 1312.8999999999999 172.75" fill="#f4f4fc"/><rect x="0" y="207.29999999999998" width="69.1" height="69.1" fill="#ffffff"/><rect x="207.29999999999998" y="207.29999999999998" width="69.1" height="69.1" fill="#ffffff"/><path d="M 207.3 207.3 A 34.55 34.55 0 0 1  241.85000000000002 241.85000000000002 L 207.3 207.3 A 34.55 34.55 0 0 0 241.85000000000002 241.85000000000002" fill="#f1f1fb"/><path d="M 276.4 276.4 A 69.1 69.1 0 0 1  345.5 207.3 L 276.4 276.4 A 69.1 69.1 0 0 0 345.5 207.3" fill="#fcfcfe"/><rect x="414.59999999999997" y="207.29999999999998" width="69.1" height="69.1" fill="#ffffff"/><path d="M 414.6 207.3 A 34.55 34.55 0 0 1  449.15000000000003 241.85000000000002 L 414.6 207.3 A 34.55 34.55 0 0 0 449.15000000000003 241.85000000000002" fill="#7ac3f1"/><path d="M 449.15 241.85000000000002 A 34.55 34.55 0 0 1  483.7 207.3 L 449.15 241.85000000000002 A 34.55 34.55 0 0 0 483.7 207.3" fill="#bbe0f8"/><path d="M 449.15 241.85 A 34.55 34.55 0 0 1  483.7 276.4 L 449.15 241.85 A 34.55 34.55 0 0 0 483.7 276.4" fill="#51b1ed"/><path d="M 967.4 207.3 A 69.1 69.1 0 0 1  1036.5 276.4 L 967.4 207.3 A 69.1 69.1 0 0 0 1036.5 276.4" fill="#f3f3fb"/><path d="M 1036.5 207.3 A 69.1 69.1 0 0 1  1105.6 276.4 L 1036.5 207.3 A 69.1 69.1 0 0 0 1105.6 276.4" fill="#a4d6f5"/><path d="M 1243.8 207.3 A 69.1 69.1 0 0 1  1312.8999999999999 276.4 L 1243.8 207.3 A 69.1 69.1 0 0 0 1312.8999999999999 276.4" fill="#abd9f6"/><rect x="1312.8999999999999" y="207.29999999999998" width="69.1" height="69.1" fill="#ffffff"/><path d="M 1347.45 276.4 A 34.55 34.55 0 0 1  1382 241.85 L 1347.45 276.4 A 34.55 34.55 0 0 0 1382 241.85" fill="#75c1f0"/><path d="M 276.4 276.4 A 69.1 69.1 0 0 1  345.5 345.5 L 276.4 276.4 A 69.1 69.1 0 0 0 345.5 345.5" fill="#a4d6f5"/><path d="M 345.5 345.5 A 69.1 69.1 0 0 1  414.6 276.4 L 345.5 345.5 A 69.1 69.1 0 0 0 414.6 276.4" fill="#f0f0fa"/><rect x="898.3" y="276.4" width="69.1" height="69.1" fill="#ffffff"/><path d="M 898.3 276.4 A 34.55 34.55 0 0 1  932.8499999999999 310.95 L 898.3 276.4 A 34.55 34.55 0 0 0 932.8499999999999 310.95" fill="#cee9fa"/><path d="M 932.85 345.5 A 34.55 34.55 0 0 1  967.4 310.95 L 932.85 345.5 A 34.55 34.55 0 0 0 967.4 310.95" fill="#f0f0fb"/><path d="M 967.4 276.4 A 69.1 69.1 0 0 1  1036.5 345.5 L 967.4 276.4 A 69.1 69.1 0 0 0 1036.5 345.5" fill="#addaf6"/><rect x="1312.8999999999999" y="276.4" width="69.1" height="69.1" fill="#ffffff"/><rect x="0" y="345.5" width="69.1" height="69.1" fill="#ffffff"/><path d="M 0 380.05 A 34.55 34.55 0 0 1  34.55 345.5 L 0 380.05 A 34.55 34.55 0 0 0 34.55 345.5" fill="#daeefb"/><path d="M 34.55 414.6 A 34.55 34.55 0 0 1  69.1 380.05 L 34.55 414.6 A 34.55 34.55 0 0 0 69.1 380.05" fill="#ededf9"/><path d="M 69.1 345.5 A 69.1 69.1 0 0 1  138.2 414.6 L 69.1 345.5 A 69.1 69.1 0 0 0 138.2 414.6" fill="#e8e8f8"/><path d="M 138.2 414.6 A 69.1 69.1 0 0 1  207.29999999999998 345.5 L 138.2 414.6 A 69.1 69.1 0 0 0 207.29999999999998 345.5" fill="#b7dff7"/><path d="M 207.3 345.5 A 69.1 69.1 0 0 1  276.4 414.6 L 207.3 345.5 A 69.1 69.1 0 0 0 276.4 414.6" fill="#55b3ed"/><path d="M 345.5 345.5 A 69.1 69.1 0 0 1  414.6 414.6 L 345.5 345.5 A 69.1 69.1 0 0 0 414.6 414.6" fill="#ececf9"/><rect x="414.59999999999997" y="345.5" width="69.1" height="69.1" fill="#ffffff"/><path d="M 414.6 345.5 A 34.55 34.55 0 0 1  449.15000000000003 380.05 L 414.6 345.5 A 34.55 34.55 0 0 0 449.15000000000003 380.05" fill="#d4ecfb"/><path d="M 449.15 345.5 A 34.55 34.55 0 0 1  483.7 380.05 L 449.15 345.5 A 34.55 34.55 0 0 0 483.7 380.05" fill="#a9d8f6"/><path d="M 691 345.5 A 69.1 69.1 0 0 1  760.1 414.6 L 691 345.5 A 69.1 69.1 0 0 0 760.1 414.6" fill="#addaf6"/><rect x="829.1999999999999" y="345.5" width="69.1" height="69.1" fill="#ffffff"/><path d="M 829.2 345.5 A 34.55 34.55 0 0 1  863.75 380.05 L 829.2 345.5 A 34.55 34.55 0 0 0 863.75 380.05" fill="#299fe9"/><path d="M 863.75 414.6 A 34.55 34.55 0 0 1  898.3 380.05 L 863.75 414.6 A 34.55 34.55 0 0 0 898.3 380.05" fill="#31a3e9"/><path d="M 1036.5 345.5 A 69.1 69.1 0 0 1  1105.6 414.6 L 1036.5 345.5 A 69.1 69.1 0 0 0 1105.6 414.6" fill="#b8dff8"/><rect x="1105.6" y="345.5" width="69.1" height="69.1" fill="#ffffff"/><path d="M 1105.6 380.05 A 34.55 34.55 0 0 1  1140.1499999999999 345.5 L 1105.6 380.05 A 34.55 34.55 0 0 0 1140.1499999999999 345.5" fill="#eaeaf9"/><path d="M 1312.9 414.6 A 69.1 69.1 0 0 1  1382 345.5 L 1312.9 414.6 A 69.1 69.1 0 0 0 1382 345.5" fill="#fefeff"/><path d="M 207.3 483.70000000000005 A 69.1 69.1 0 0 1  276.4 414.6 L 207.3 483.70000000000005 A 69.1 69.1 0 0 0 276.4 414.6" fill="#50b1ed"/><path d="M 621.9 414.6 A 69.1 69.1 0 0 1  691 483.70000000000005 L 621.9 414.6 A 69.1 69.1 0 0 0 691 483.70000000000005" fill="#32a3e9"/><path d="M 691 414.6 A 69.1 69.1 0 0 1  760.1 483.70000000000005 L 691 414.6 A 69.1 69.1 0 0 0 760.1 483.70000000000005" fill="#32a3ea"/><path d="M 760.1 414.6 A 69.1 69.1 0 0 1  829.2 483.70000000000005 L 760.1 414.6 A 69.1 69.1 0 0 0 829.2 483.70000000000005" fill="#b4ddf7"/><rect x="898.3" y="414.59999999999997" width="69.1" height="69.1" fill="#ffffff"/><path d="M 932.85 414.6 A 34.55 34.55 0 0 1  967.4 449.15000000000003 L 932.85 414.6 A 34.55 34.55 0 0 0 967.4 449.15000000000003" fill="#fbfbfe"/><path d="M 932.85 449.15 A 34.55 34.55 0 0 1  967.4 483.7 L 932.85 449.15 A 34.55 34.55 0 0 0 967.4 483.7" fill="#f0f8fd"/><rect x="1036.5" y="414.59999999999997" width="69.1" height="69.1" fill="#ffffff"/><path d="M 1036.5 449.15000000000003 A 34.55 34.55 0 0 1  1071.05 414.6 L 1036.5 449.15000000000003 A 34.55 34.55 0 0 0 1071.05 414.6" fill="#ebebf9"/><path d="M 1036.5 449.15 A 34.55 34.55 0 0 1  1071.05 483.7 L 1036.5 449.15 A 34.55 34.55 0 0 0 1071.05 483.7" fill="#52b2ed"/><path d="M 1071.05 449.15 A 34.55 34.55 0 0 1  1105.6 483.7 L 1071.05 449.15 A 34.55 34.55 0 0 0 1105.6 483.7" fill="#f0f0fb"/><path d="M 1312.9 483.70000000000005 A 69.1 69.1 0 0 1  1382 414.6 L 1312.9 483.70000000000005 A 69.1 69.1 0 0 0 1382 414.6" fill="#f7f7fd"/><rect x="414.59999999999997" y="483.69999999999993" width="69.1" height="69.1" fill="#ffffff"/><path d="M 414.6 552.8 A 34.55 34.55 0 0 1  449.15000000000003 518.25 L 414.6 552.8 A 34.55 34.55 0 0 0 449.15000000000003 518.25" fill="#7cc4f1"/><path d="M 829.2 483.7 A 69.1 69.1 0 0 1  898.3000000000001 552.8 L 829.2 483.7 A 69.1 69.1 0 0 0 898.3000000000001 552.8" fill="#47adec"/><rect x="967.3999999999999" y="483.69999999999993" width="69.1" height="69.1" fill="#ffffff"/><rect x="1243.8" y="483.69999999999993" width="69.1" height="69.1" fill="#ffffff"/><rect x="1312.8999999999999" y="483.69999999999993" width="69.1" height="69.1" fill="#ffffff"/><path d="M 1347.45 483.7 A 34.55 34.55 0 0 1  1382 518.25 L 1347.45 483.7 A 34.55 34.55 0 0 0 1382 518.25" fill="#f6fbfe"/><rect x="69.1" y="552.8" width="69.1" height="69.1" fill="#ffffff"/><path d="M 103.65 587.3499999999999 A 34.55 34.55 0 0 1  138.2 552.8 L 103.65 587.3499999999999 A 34.55 34.55 0 0 0 138.2 552.8" fill="#76c2f1"/><path d="M 483.7 621.9 A 69.1 69.1 0 0 1  552.8 552.8 L 483.7 621.9 A 69.1 69.1 0 0 0 552.8 552.8" fill="#ededf9"/><path d="M 691 621.9 A 69.1 69.1 0 0 1  760.1 552.8 L 691 621.9 A 69.1 69.1 0 0 0 760.1 552.8" fill="#e8e8f8"/><path d="M 829.2 621.9 A 69.1 69.1 0 0 1  898.3000000000001 552.8 L 829.2 621.9 A 69.1 69.1 0 0 0 898.3000000000001 552.8" fill="#cfeafa"/><path d="M 1036.5 621.9 A 69.1 69.1 0 0 1  1105.6 552.8 L 1036.5 621.9 A 69.1 69.1 0 0 0 1105.6 552.8" fill="#31a3e9"/><rect x="1243.8" y="552.8" width="69.1" height="69.1" fill="#ffffff"/><path d="M 1243.8 587.3499999999999 A 34.55 34.55 0 0 1  1278.35 552.8 L 1243.8 587.3499999999999 A 34.55 34.55 0 0 0 1278.35 552.8" fill="#f1f1fb"/><path d="M 1243.8 587.35 A 34.55 34.55 0 0 1  1278.35 621.9 L 1243.8 587.35 A 34.55 34.55 0 0 0 1278.35 621.9" fill="#f0f0fa"/><rect x="1312.8999999999999" y="552.8" width="69.1" height="69.1" fill="#ffffff"/><rect x="1382" y="552.8" width="69.1" height="69.1" fill="#ffffff"/><path d="M 1382 621.9 A 34.55 34.55 0 0 1  1416.55 587.35 L 1382 621.9 A 34.55 34.55 0 0 0 1416.55 587.35" fill="#a6d7f6"/><path d="M 276.4 691 A 69.1 69.1 0 0 1  345.5 621.9 L 276.4 691 A 69.1 69.1 0 0 0 345.5 621.9" fill="#c3e4f9"/><path d="M 483.7 691 A 69.1 69.1 0 0 1  552.8 621.9 L 483.7 691 A 69.1 69.1 0 0 0 552.8 621.9" fill="#f4f4fc"/><path d="M 691 691 A 69.1 69.1 0 0 1  760.1 621.9 L 691 691 A 69.1 69.1 0 0 0 760.1 621.9" fill="#c9e7f9"/><rect x="760.0999999999999" y="621.9" width="69.1" height="69.1" fill="#ffffff"/><path d="M 898.3 691 A 69.1 69.1 0 0 1  967.4 621.9 L 898.3 691 A 69.1 69.1 0 0 0 967.4 621.9" fill="#f1f9fe"/><rect x="1174.6999999999998" y="621.9" width="69.1" height="69.1" fill="#ffffff"/><path d="M 1174.7 656.4499999999999 A 34.55 34.55 0 0 1  1209.25 621.9 L 1174.7 656.4499999999999 A 34.55 34.55 0 0 0 1209.25 621.9" fill="#2aa0e9"/><path d="M 1312.9 691 A 69.1 69.1 0 0 1  1382 621.9 L 1312.9 691 A 69.1 69.1 0 0 0 1382 621.9" fill="#e9e9f8"/><rect x="1382" y="621.9" width="69.1" height="69.1" fill="#ffffff"/><path d="M 1382 621.9 A 34.55 34.55 0 0 1  1416.55 656.4499999999999 L 1382 621.9 A 34.55 34.55 0 0 0 1416.55 656.4499999999999" fill="#fafafe"/><path d="M 1382 691 A 34.55 34.55 0 0 1  1416.55 656.45 L 1382 691 A 34.55 34.55 0 0 0 1416.55 656.45" fill="#a6d7f6"/></g></svg>